<?xml version="1.0" encoding="utf-8"?>
<!-- Generator: Adobe Illustrator 24.2.1, SVG Export Plug-In . SVG Version: 6.00 Build 0)  -->
<svg version="1.1" id="Layer_1" xmlns="http://www.w3.org/2000/svg" xmlns:xlink="http://www.w3.org/1999/xlink" x="0px" y="0px"
	 viewBox="0 0 500 500" style="enable-background:new 0 0 500 500;" xml:space="preserve">
<g>
	<path d="M164.11,177.17h5.52h42.61c12.1,0,18.15,3.42,24.19,13.41l49.71,77.4h1.7v-90.81h44.63h5.51h146.86
		C453.67,77.4,360.54,5,250.5,5C140.46,5,47.33,77.4,16.15,177.17H164.11z"/>
	<path d="M439.22,212.86v145.06h-48.89V212.86H334.4v145.06h-32.64c-12.1,0-17.88-3.42-24.19-13.41l-63.27-94.72l-1.02,0v108.13
		h-47.51V212.86h-55.71v145.06H60.31V212.86H7.87C5.99,225.13,5,237.7,5,250.5C5,386.09,114.91,496,250.5,496
		C386.09,496,496,386.09,496,250.5c0-12.8-0.99-25.37-2.87-37.64H439.22z"/>
</g>
<g>
	<path d="M416.06,485.84h-2v-9.73h-3.68v-1.69h9.29v1.69h-3.61V485.84z M431.71,485.84h-1.96l0.07-7.05l0.1-2.34l-0.55,1.93
		l-2.34,7.46h-1.79l-2.31-7.46l-0.58-1.89l0.14,2.3l0.07,7.05h-1.93v-11.42h2.72l2.85,9.01l2.79-9.01h2.72V485.84z"/>
</g>
</svg>
